# xmcd CD database file
#
# Track frame offsets:
#	150
#	10173
#	25672
#	47424
#	73995
#	86298
#	99602
#	114639
#	128388
#	132427
#	133896
#	145246
#	157386
#	171727
#	189176
#	205540
#	220346
#	240528
#	259895
#
# Disc length: 3642 seconds
#
# Revision: 0
# Processed by: cddbd v1.5.2PL0 Copyright (c) Steve Scherf et al.
# Submitted via: CDex 1.51
#
DISCID=140e3813
DTITLE=Preacher Jack - Pictures from life's other side
DYEAR=2007
DGENRE=Piano
TTITLE0=I'm in love again
TTITLE1=Good Rockin tonight
TTITLE2=Me and Bobby McGee
TTITLE3=After Hours
TTITLE4=Don't bo cruel
TTITLE5=You win again
TTITLE6=I'm counting you
TTITLE7=Will the circle be unbroken
TTITLE8=Testin out the Boogie
TTITLE9=Introduction to the sessions
TTITLE10=I could never be ashamed of you
TTITLE11=When you're tired of breaking other hearts
TTITLE12=Mind your own business
TTITLE13=Blueberry hill
TTITLE14=I'll make it all up to you
TTITLE15=Too many parties and too many pals
TTITLE16=In the upper room
TTITLE17=I'm going to live
TTITLE18=The life i sing about in my song
EXTD=YEAR: 2007
EXTT0=
EXTT1=
EXTT2=
EXTT3=
EXTT4=
EXTT5=
EXTT6=
EXTT7=
EXTT8=
EXTT9=
EXTT10=
EXTT11=
EXTT12=
EXTT13=
EXTT14=
EXTT15=
EXTT16=
EXTT17=
EXTT18=
PLAYORDER=
